<svg width="94" height="28" viewBox="0 0 94 28" fill="none" xmlns="http://www.w3.org/2000/svg">
<path d="M14 28C6.26889 28 0 21.7311 0 14H14V28Z" fill="#703BF7"/>
<path d="M0 0C7.73111 0 14 6.26889 14 14H0V0Z" fill="#703BF7"/>
<path d="M14 28C21.7311 28 28 21.7311 28 14H14V28Z" fill="#703BF7"/>
<path d="M28 14C28 6.26889 21.7311 0 14 0V14H28Z" fill="#703BF7"/>
<path d="M91.4781 20.3352V15.6646C91.4781 15.125 91.3038 14.681 90.9554 14.3325C90.6181 13.9841 90.1797 13.8098 89.6402 13.8098C89.2805 13.8098 88.9601 13.8885 88.6791 14.0459C88.398 14.2033 88.1788 14.4225 88.0215 14.7035C87.8641 14.9845 87.7854 15.3049 87.7854 15.6646L87.0604 15.2599C87.0604 14.6417 87.1953 14.0965 87.465 13.6244C87.7348 13.141 88.1058 12.7644 88.5779 12.4947C89.0613 12.2136 89.6008 12.0731 90.1966 12.0731C90.8036 12.0731 91.3432 12.2305 91.8153 12.5452C92.2874 12.8487 92.6584 13.2478 92.9281 13.7424C93.1979 14.2258 93.3328 14.7316 93.3328 15.2599V20.3352H91.4781ZM85.9307 20.3352V12.2417H87.7854V20.3352H85.9307Z" fill="white"/>
<path d="M81.9958 20.3352V12.2417H83.8505V20.3352H81.9958ZM82.9231 10.7579C82.6084 10.7579 82.3442 10.6511 82.1307 10.4376C81.9283 10.224 81.8271 9.95983 81.8271 9.64508C81.8271 9.33033 81.9283 9.06617 82.1307 8.85259C82.3442 8.63902 82.6084 8.53223 82.9231 8.53223C83.2491 8.53223 83.5133 8.63902 83.7156 8.85259C83.918 9.06617 84.0191 9.33033 84.0191 9.64508C84.0191 9.95983 83.918 10.224 83.7156 10.4376C83.5133 10.6511 83.2491 10.7579 82.9231 10.7579Z" fill="white"/>
<path d="M76.732 20.5038C75.9227 20.5038 75.192 20.324 74.54 19.9643C73.8993 19.5933 73.3878 19.0875 73.0056 18.4467C72.6347 17.806 72.4492 17.0866 72.4492 16.2885C72.4492 15.4904 72.6347 14.7766 73.0056 14.1471C73.3766 13.5063 73.8768 13.0005 74.5063 12.6295C75.147 12.2586 75.8552 12.0731 76.6308 12.0731C77.384 12.0731 78.0472 12.2474 78.6205 12.5958C79.205 12.9443 79.6603 13.422 79.9863 14.029C80.3235 14.6361 80.4921 15.3274 80.4921 16.103C80.4921 16.2379 80.4809 16.3784 80.4584 16.5245C80.4471 16.6594 80.4247 16.8112 80.3909 16.9798H73.7475V15.4623H79.4298L78.7385 16.0693C78.716 15.5747 78.6205 15.1588 78.4519 14.8215C78.2833 14.4843 78.0416 14.2258 77.7268 14.0459C77.4233 13.866 77.0468 13.7761 76.5971 13.7761C76.125 13.7761 75.7147 13.8773 75.3662 14.0796C75.0178 14.282 74.748 14.5686 74.5569 14.9396C74.3658 15.2993 74.2702 15.732 74.2702 16.2379C74.2702 16.7437 74.3714 17.1877 74.5738 17.5699C74.7761 17.9521 75.0627 18.25 75.4337 18.4636C75.8046 18.6659 76.2318 18.7671 76.7151 18.7671C77.1311 18.7671 77.5133 18.694 77.8617 18.5479C78.2214 18.4018 78.5249 18.1882 78.7722 17.9072L79.9525 19.1043C79.5591 19.5652 79.0814 19.9137 78.5193 20.1497C77.9573 20.3858 77.3615 20.5038 76.732 20.5038Z" fill="white"/>
<path d="M68.0611 20.3351V8.86938H69.9159V20.3351H68.0611ZM66.1221 13.9278V12.2417H71.8549V13.9278H66.1221Z" fill="white"/>
<path d="M60.4389 20.5038C59.7083 20.5038 59.0451 20.3183 58.4493 19.9474C57.8648 19.5764 57.3983 19.0762 57.0498 18.4467C56.7126 17.806 56.5439 17.0922 56.5439 16.3053C56.5439 15.5072 56.7126 14.7934 57.0498 14.1639C57.3983 13.5232 57.8648 13.0174 58.4493 12.6464C59.0451 12.2642 59.7083 12.0731 60.4389 12.0731C61.0572 12.0731 61.6024 12.208 62.0745 12.4778C62.5578 12.7363 62.94 13.096 63.2211 13.5569C63.5021 14.0178 63.6426 14.5405 63.6426 15.125V17.4519C63.6426 18.0364 63.5021 18.5591 63.2211 19.02C62.9513 19.4809 62.5747 19.8462 62.0913 20.116C61.608 20.3745 61.0572 20.5038 60.4389 20.5038ZM60.7424 18.7502C61.4281 18.7502 61.9789 18.5198 62.3948 18.0589C62.822 17.598 63.0356 17.0079 63.0356 16.2885C63.0356 15.8051 62.94 15.378 62.7489 15.007C62.5578 14.6361 62.2881 14.3494 61.9396 14.1471C61.6024 13.9335 61.2033 13.8267 60.7424 13.8267C60.2928 13.8267 59.8937 13.9335 59.5453 14.1471C59.208 14.3494 58.9383 14.6361 58.7359 15.007C58.5448 15.378 58.4493 15.8051 58.4493 16.2885C58.4493 16.7718 58.5448 17.199 58.7359 17.5699C58.9383 17.9409 59.208 18.2331 59.5453 18.4467C59.8937 18.6491 60.2928 18.7502 60.7424 18.7502ZM62.9176 20.3352V18.1601L63.2379 16.1873L62.9176 14.2314V12.2417H64.7723V20.3352H62.9176Z" fill="white"/>
<path d="M52.1383 20.3351V8.86938H53.993V20.3351H52.1383ZM50.1992 13.9278V12.2417H55.9321V13.9278H50.1992Z" fill="white"/>
<path d="M46.3095 20.5038C45.8599 20.5038 45.4271 20.4476 45.0112 20.3352C44.5953 20.2116 44.2131 20.0429 43.8646 19.8294C43.5161 19.6045 43.2126 19.3348 42.9541 19.02L44.1344 17.8397C44.4154 18.1657 44.7358 18.413 45.0955 18.5816C45.4664 18.739 45.8824 18.8177 46.3432 18.8177C46.7592 18.8177 47.0739 18.7559 47.2875 18.6322C47.5011 18.5086 47.6078 18.3287 47.6078 18.0926C47.6078 17.8453 47.5067 17.6542 47.3043 17.5193C47.102 17.3845 46.8378 17.272 46.5119 17.1821C46.1971 17.081 45.8599 16.9798 45.5002 16.8786C45.1517 16.7774 44.8145 16.6426 44.4885 16.4739C44.1737 16.2941 43.9152 16.0524 43.7129 15.7489C43.5105 15.4454 43.4094 15.052 43.4094 14.5686C43.4094 14.0515 43.5274 13.6075 43.7634 13.2366C44.0107 12.8656 44.3536 12.579 44.792 12.3766C45.2416 12.1743 45.7756 12.0731 46.3938 12.0731C47.0458 12.0731 47.6191 12.1911 48.1137 12.4272C48.6195 12.652 49.0411 12.9949 49.3783 13.4558L48.198 14.6361C47.9619 14.3438 47.6922 14.1246 47.3886 13.9785C47.0851 13.8323 46.7367 13.7593 46.3432 13.7593C45.9723 13.7593 45.6856 13.8155 45.4833 13.9279C45.281 14.0403 45.1798 14.2033 45.1798 14.4169C45.1798 14.6417 45.281 14.8159 45.4833 14.9396C45.6856 15.0632 45.9442 15.17 46.2589 15.2599C46.5849 15.3499 46.9221 15.451 47.2706 15.5634C47.6303 15.6646 47.9676 15.8107 48.2823 16.0018C48.6083 16.1817 48.8725 16.429 49.0748 16.7437C49.2771 17.0472 49.3783 17.4463 49.3783 17.9409C49.3783 18.7278 49.1029 19.3516 48.5521 19.8125C48.0013 20.2734 47.2538 20.5038 46.3095 20.5038Z" fill="white"/>
<path d="M33.9697 20.3352V8.53223H35.9088V20.3352H33.9697ZM35.3018 20.3352V18.5648H41.9114V20.3352H35.3018ZM35.3018 15.1588V13.4558H41.3382V15.1588H35.3018ZM35.3018 10.3027V8.53223H41.8271V10.3027H35.3018Z" fill="white"/>
</svg>
